999
Sample DXF File - Complex Architecture
0
SECTION
2
HEADER
9
$ACADVER
1
AC1015
0
ENDSEC
0
SECTION
2
TABLES
0
TABLE
2
LAYER
70
1
0
LAYER
2
0
70
0
62
7
6
CONTINUOUS
0
LAYER
2
WALLS
70
0
62
5
6
CONTINUOUS
0
LAYER
2
DOORS
70
0
62
1
6
CONTINUOUS
0
ENDTAB
0
ENDTAB
0
ENDSEC
0
SECTION
2
BLOCKS
0
ENDSEC
0
SECTION
2
ENTITIES
0
LWPOLYLINE
8
WALLS
70
1
10
0.0
20
0.0
10
100.0
20
0.0
10
100.0
20
50.0
10
0.0
20
50.0
0
LWPOLYLINE
8
DOORS
70
0
10
20.0
20
0.0
10
30.0
20
0.0
10
30.0
20
3.0
10
20.0
20
3.0
0
LWPOLYLINE
8
DOORS
70
0
10
70.0
20
0.0
10
80.0
20
0.0
10
80.0
20
3.0
10
70.0
20
3.0
0
ENDSEC
0
EOF
