999
Sample DXF File - Mechanical Parts
0
SECTION
2
HEADER
9
$ACADVER
1
AC1015
0
ENDSEC
0
SECTION
2
TABLES
0
TABLE
2
LAYER
70
1
0
LAYER
2
0
70
0
62
7
6
CONTINUOUS
0
LAYER
2
PART_A
70
0
62
3
6
CONTINUOUS
0
LAYER
2
PART_B
70
0
62
4
6
CONTINUOUS
0
ENDTAB
0
ENDTAB
0
ENDSEC
0
SECTION
2
BLOCKS
0
ENDSEC
0
SECTION
2
ENTITIES
0
CIRCLE
8
PART_A
10
10.0
20
10.0
30
0.0
40
5.0
0
CIRCLE
8
PART_A
10
10.0
20
10.0
30
0.0
40
3.0
0
ARC
8
PART_B
10
30.0
20
20.0
30
0.0
40
8.0
50
0.0
51
180.0
0
LINE
8
PART_B
10
22.0
20
20.0
30
0.0
11
38.0
21
20.0
31
0.0
0
ENDSEC
0
EOF
